# xmcd CD database file
#
# Track frame offsets:
#	150
#	17245
#	33840
#	50904
#	68332
#	86110
#	106860
#	123198
#	140193
#	155583
#	171616
#	183702
#	195795
#	212655
#	228766
#	243532
#	260827
#	279584
#
# Disc length: 3937 seconds
#
# Revision: 0
# Processed by: cddbd v1.5.2PL0 Copyright (c) Steve Scherf et al.
# Submitted via: CDex 1.70beta2
#
DISCID=070f5f12
DTITLE=Various Artist - NU COUNTRY TRAXX 179
DYEAR=2014
DGENRE=Country
TTITLE0=Play It Again - Luke Bryan
TTITLE1=I Don't Dance - Lee Brice
TTITLE2=Chainsaw - The Band Perry
TTITLE3=Kiss You Tonight - David Nail
TTITLE4=Automatic - Miranda Lambert
TTITLE5=Invisible - Hunter Hayes 
TTITLE6=Me Without You - Jennifer Nettles
TTITLE7=Song About A Girl - Eric Paslay
TTITLE8=Closer To Nowhere - Kellie Pickler
TTITLE9=How Could I Want More - Jamie Lynn Spears 
TTITLE10=Ball Cap - Glen Templeton
TTITLE11=Annie's New Gun - Gwen Sebastian 
TTITLE12=Look At You - Big and Rich
TTITLE13=More - Brandon Hamilton
TTITLE14=Fallin' Over You - Chad Brownlee
TTITLE15=Crazy Enough - Bobby Wills
TTITLE16=Wake Me Up - Tebey
TTITLE17=Pass It Around - Deric Ruttan
EXTD=YEAR: 2014
EXTT0=
EXTT1=
EXTT2=
EXTT3=
EXTT4=
EXTT5=
EXTT6=
EXTT7=
EXTT8=
EXTT9=
EXTT10=
EXTT11=
EXTT12=
EXTT13=
EXTT14=
EXTT15=
EXTT16=
EXTT17=
PLAYORDER=
